<svg id="logo" xmlns="http://www.w3.org/2000/svg" viewBox="0 0 750 180">
<style type="text/css">
	.st0{fill:#141735;}
	.st1{fill:#000033;}
	.st2{fill:#FFFFFF;}
	.st3{fill:#FECC36;}
	.st4{fill:#E83B3B;}
</style>
<path class="st0" d="M730.3,173.6H410.9V6.4h319.4c7.8,0,14.1,6.3,14.1,14.1v138.9C744.5,167.3,738.1,173.6,730.3,173.6z"/>
<path class="st1" d="M152.8,149.4c0,0.7-0.2,1.2-0.5,1.8c-0.4,0.5-1,0.9-2,1.3c-0.9,0.3-2.2,0.6-3.8,0.8s-3.5,0.3-6,0.3
	c-2.3,0-4.3-0.1-5.9-0.3s-2.8-0.5-3.7-0.8c-0.9-0.3-1.6-0.7-2-1.3c-0.4-0.5-0.6-1.1-0.6-1.8V46.5h-0.2L91.7,149.3
	c-0.3,0.8-0.7,1.5-1.3,2.1c-0.6,0.6-1.4,1-2.4,1.3c-1,0.3-2.3,0.5-3.9,0.6s-3.5,0.1-5.7,0.1c-2.2,0-4.1-0.1-5.7-0.2
	c-1.6-0.2-2.8-0.4-3.9-0.8c-1-0.4-1.8-0.8-2.4-1.3c-0.6-0.5-1-1.1-1.2-1.9L30,46.5h-0.2v102.8c0,0.7-0.2,1.2-0.5,1.8
	c-0.4,0.5-1,0.9-2,1.3c-1,0.3-2.2,0.6-3.8,0.8c-1.5,0.2-3.5,0.3-5.9,0.3c-2.3,0-4.3-0.1-5.9-0.3S9,152.7,8,152.4
	c-0.9-0.3-1.6-0.7-2-1.3c-0.4-0.5-0.5-1.1-0.5-1.8V36.8c0-3.3,0.9-5.9,2.6-7.6s4.1-2.6,7-2.6H32c3,0,5.6,0.2,7.7,0.7s4,1.3,5.6,2.4
	c1.6,1.1,2.9,2.6,3.9,4.5c1,1.9,2,4.2,2.7,6.9l27.3,75.3h0.4L108,41.3c0.8-2.7,1.8-5,2.8-6.9c1-1.9,2.2-3.4,3.5-4.6
	c1.3-1.2,2.9-2,4.7-2.5c1.8-0.5,3.9-0.7,6.3-0.7h17.3c1.8,0,3.3,0.2,4.5,0.7c1.3,0.5,2.3,1.1,3.1,2c0.8,0.9,1.4,2,1.9,3.2
	c0.4,1.3,0.6,2.7,0.6,4.3V149.4z"/>
<path class="st1" d="M167.8,138.4c0.2-1.3,0.4-2.3,0.7-3.1c0.3-0.8,0.7-1.4,1.2-1.7c0.5-0.4,1-0.5,1.6-0.5h45.5V97.4h-38.2
	c-0.6,0-1.1-0.2-1.6-0.5c-0.5-0.3-0.9-0.9-1.2-1.6c-0.3-0.7-0.6-1.7-0.7-3c-0.2-1.2-0.2-2.8-0.2-4.7c0-1.8,0.1-3.4,0.2-4.6
	c0.2-1.3,0.4-2.3,0.7-3c0.3-0.7,0.7-1.3,1.2-1.7c0.5-0.4,1-0.5,1.6-0.5h38.2V46.9h-45.1c-0.6,0-1.1-0.2-1.6-0.5
	c-0.5-0.4-0.8-0.9-1.2-1.7c-0.3-0.8-0.6-1.8-0.7-3.1c-0.2-1.3-0.2-2.8-0.2-4.6c0-2,0.1-3.6,0.2-4.8c0.2-1.3,0.4-2.3,0.7-3.1
	c0.3-0.8,0.7-1.4,1.2-1.7c0.5-0.3,1-0.5,1.6-0.5h63.1c2.1,0,4,0.6,5.4,1.9s2.2,3.3,2.2,6.2v110.2c0,2.9-0.7,4.9-2.2,6.2
	s-3.3,1.9-5.4,1.9h-63.5c-0.6,0-1.1-0.2-1.6-0.5c-0.5-0.4-0.9-0.9-1.2-1.7c-0.3-0.8-0.6-1.8-0.7-3.1c-0.2-1.3-0.2-2.8-0.2-4.7
	C167.6,141.2,167.7,139.7,167.8,138.4z"/>
<path class="st1" d="M404.5,149.4c0,0.7-0.2,1.2-0.5,1.8c-0.4,0.5-1,0.9-2,1.3c-0.9,0.3-2.2,0.6-3.8,0.8s-3.5,0.3-6,0.3
	c-2.3,0-4.3-0.1-5.9-0.3s-2.8-0.5-3.7-0.8c-0.9-0.3-1.6-0.7-2-1.3c-0.4-0.5-0.6-1.1-0.6-1.8V46.5H380l-36.6,102.7
	c-0.3,0.8-0.7,1.5-1.3,2.1c-0.6,0.6-1.4,1-2.4,1.3c-1,0.3-2.3,0.5-3.9,0.6s-3.5,0.1-5.7,0.1c-2.2,0-4.1-0.1-5.7-0.2
	c-1.6-0.2-2.8-0.4-3.9-0.8c-1-0.4-1.8-0.8-2.4-1.3c-0.6-0.5-1-1.1-1.2-1.9L281.8,46.5h-0.2v102.8c0,0.7-0.2,1.2-0.5,1.8
	c-0.4,0.5-1,0.9-2,1.3c-1,0.3-2.2,0.6-3.8,0.8c-1.5,0.2-3.5,0.3-5.9,0.3c-2.3,0-4.3-0.1-5.9-0.3s-2.8-0.5-3.8-0.8
	c-0.9-0.3-1.6-0.7-2-1.3c-0.4-0.5-0.5-1.1-0.5-1.8V36.8c0-3.3,0.9-5.9,2.6-7.6s4.1-2.6,7-2.6h16.8c3,0,5.6,0.2,7.7,0.7
	s4,1.3,5.6,2.4c1.6,1.1,2.9,2.6,3.9,4.5c1,1.9,2,4.2,2.7,6.9l27.3,75.3h0.4l28.3-75.1c0.8-2.7,1.8-5,2.8-6.9c1-1.9,2.2-3.4,3.5-4.6
	c1.3-1.2,2.9-2,4.7-2.5c1.8-0.5,3.9-0.7,6.3-0.7h17.3c1.8,0,3.3,0.2,4.5,0.7c1.3,0.5,2.3,1.1,3.1,2c0.8,0.9,1.4,2,1.9,3.2
	c0.4,1.3,0.6,2.7,0.6,4.3V149.4z"/>
<path class="st2" d="M538.9,88.5c0,10.5-1.3,19.9-3.9,28.1c-2.6,8.3-6.5,15.3-11.6,21c-5.1,5.8-11.5,10.2-19.1,13.2
	c-7.6,3-16.4,4.5-26.3,4.5c-9.8,0-18.4-1.3-25.7-3.9s-13.4-6.5-18.3-11.8s-8.5-12-11-20.1c-2.4-8.1-3.7-17.8-3.7-28.9
	c0-10.2,1.3-19.4,3.9-27.6c2.6-8.2,6.5-15.1,11.6-20.8c5.1-5.7,11.5-10.1,19.1-13.2c7.6-3.1,16.4-4.6,26.4-4.6
	c9.6,0,18,1.3,25.3,3.8c7.3,2.5,13.4,6.4,18.4,11.7c4.9,5.3,8.6,11.9,11.1,20C537.7,68.1,538.9,77.6,538.9,88.5z M512,89.9
	c0-6.6-0.5-12.7-1.6-18.1c-1-5.4-2.8-10.1-5.3-14c-2.5-3.9-5.8-6.9-10-9c-4.2-2.1-9.4-3.2-15.6-3.2c-6.3,0-11.6,1.2-15.8,3.6
	c-4.2,2.4-7.7,5.6-10.3,9.5c-2.6,4-4.4,8.6-5.5,13.9c-1.1,5.3-1.6,10.9-1.6,16.8c0,6.9,0.5,13.1,1.6,18.6c1,5.5,2.8,10.2,5.3,14.1
	c2.5,3.9,5.8,6.9,10,8.9c4.2,2.1,9.4,3.1,15.7,3.1c6.3,0,11.6-1.2,15.8-3.5c4.2-2.3,7.6-5.5,10.3-9.6c2.6-4,4.4-8.7,5.5-14.1
	S512,96,512,89.9z"/>
<path class="st2" d="M647.5,149.6c0,0.7-0.1,1.3-0.4,1.8c-0.3,0.5-0.9,0.9-1.9,1.2s-2.4,0.6-4.3,0.7c-1.9,0.1-4.5,0.2-7.7,0.2
	c-2.7,0-4.9-0.1-6.5-0.2c-1.6-0.1-2.9-0.4-3.9-0.7c-0.9-0.4-1.6-0.8-2-1.4c-0.4-0.6-0.7-1.2-1-2L608.5,121c-1.4-3.2-2.7-6-4-8.5
	c-1.3-2.5-2.8-4.5-4.3-6.2c-1.6-1.7-3.4-2.9-5.5-3.8c-2.1-0.8-4.5-1.3-7.2-1.3h-8v48.1c0,0.7-0.2,1.2-0.6,1.8
	c-0.4,0.5-1.1,0.9-2.1,1.3c-1,0.3-2.3,0.6-3.9,0.8c-1.6,0.2-3.7,0.3-6.2,0.3c-2.5,0-4.5-0.1-6.2-0.3s-3-0.5-4-0.8
	c-1-0.3-1.7-0.7-2.1-1.3c-0.4-0.5-0.6-1.1-0.6-1.8V34.6c0-2.9,0.7-4.9,2.2-6.2s3.3-1.9,5.4-1.9H594c3.3,0,6.1,0.1,8.2,0.2
	c2.1,0.1,4.1,0.3,5.9,0.5c5.1,0.7,9.7,2,13.7,3.7c4.1,1.8,7.5,4.1,10.4,6.9s5,6.2,6.5,10.1c1.5,3.9,2.2,8.3,2.2,13.3
	c0,4.2-0.5,8.1-1.6,11.6c-1.1,3.5-2.7,6.6-4.7,9.3c-2.1,2.7-4.7,5.1-7.7,7.1c-3.1,2-6.5,3.6-10.4,4.9c1.9,0.9,3.7,2,5.3,3.3
	c1.7,1.3,3.2,2.9,4.7,4.7s2.8,4,4.2,6.3c1.3,2.4,2.6,5.1,3.8,8.1l10.6,24.9c1,2.5,1.6,4.3,2,5.4C647.3,148,647.5,148.9,647.5,149.6z
	 M614.4,63.8c0-4.2-0.9-7.7-2.8-10.5c-1.9-2.9-5-4.9-9.3-6.1c-1.3-0.3-2.8-0.6-4.4-0.8s-4-0.3-6.9-0.3h-11.5V82h13.1
	c3.6,0,6.8-0.4,9.6-1.3s5-2.1,6.8-3.7c1.8-1.6,3.2-3.5,4.1-5.7C613.9,69,614.4,66.6,614.4,63.8z"/>
<path class="st3" d="M690.6,36.1c0,4.9-1,8.4-3,10.3c-2,1.9-5.8,2.8-11.2,2.8c-5.5,0-9.3-0.9-11.2-2.7c-1.9-1.8-2.9-5.1-2.9-9.9
	c0-4.9,1-8.4,3-10.3c2-1.9,5.7-2.9,11.3-2.9c5.5,0,9.2,0.9,11.1,2.8S690.6,31.3,690.6,36.1z M688.7,153.3c0,0.5-0.2,1-0.6,1.4
	s-1.1,0.8-2,1c-0.9,0.3-2.2,0.5-3.8,0.6c-1.6,0.1-3.5,0.2-6,0.2c-2.4,0-4.4-0.1-6-0.2c-1.6-0.1-2.8-0.3-3.8-0.6
	c-0.9-0.3-1.6-0.6-2-1s-0.6-0.9-0.6-1.4v-73c0-0.5,0.2-1,0.6-1.4c0.4-0.4,1.1-0.8,2-1.1c0.9-0.3,2.2-0.5,3.8-0.7
	c1.6-0.2,3.5-0.2,6-0.2c2.4,0,4.4,0.1,6,0.2c1.6,0.2,2.8,0.4,3.8,0.7c0.9,0.3,1.6,0.7,2,1.1c0.4,0.4,0.6,0.9,0.6,1.4V153.3z"/>
<path class="st4" d="M733.7,36.1c0,4.9-1,8.4-3,10.3c-2,1.9-5.8,2.8-11.2,2.8c-5.5,0-9.3-0.9-11.2-2.7c-1.9-1.8-2.9-5.1-2.9-9.9
	c0-4.9,1-8.4,3-10.3c2-1.9,5.7-2.9,11.3-2.9c5.5,0,9.2,0.9,11.1,2.8S733.7,31.3,733.7,36.1z M731.8,152.7c0,0.7-0.2,1.2-0.6,1.7
	s-1.1,0.9-2,1.2c-0.9,0.3-2.2,0.6-3.8,0.7c-1.6,0.2-3.5,0.2-6,0.2c-2.4,0-4.4-0.1-6-0.2c-1.6-0.2-2.8-0.4-3.8-0.7
	c-0.9-0.3-1.6-0.7-2-1.2s-0.6-1.1-0.6-1.7V65.8c0-0.6,0.2-1.2,0.6-1.7s1.1-0.9,2-1.3c0.9-0.4,2.2-0.6,3.8-0.8s3.5-0.3,6-0.3
	c2.4,0,4.4,0.1,6,0.3s2.8,0.5,3.8,0.8c0.9,0.4,1.6,0.8,2,1.3s0.6,1.1,0.6,1.7V152.7z"/>
</svg>
